# Export of Cubik Model: Cubik Model
# Designed by Vencorr with Cubik Studio - https://cubik.studio
# from Cubik OBJ Exporter v1.0
mtllib block1_full.mtl
v -16 -7.152557E-07 9.536743E-07 1 1 1
v 0 1.192093E-06 -16 1 1 1
v -16 1.192093E-06 -16 1 1 1
v 0 -7.152557E-07 9.536743E-07 1 1 1
v -16 16 9.536743E-07 1 1 1
v 0 16 -16 1 1 1
v 0 16 9.536743E-07 1 1 1
v -16 16 -16 1 1 1
v -16 -7.152557E-07 9.536743E-07 1 1 1
v 0 16 9.536743E-07 1 1 1
v 0 -7.152557E-07 9.536743E-07 1 1 1
v -16 16 9.536743E-07 1 1 1
v 0 -7.152557E-07 9.536743E-07 1 1 1
v 0 16 -16 1 1 1
v 0 1.192093E-06 -16 1 1 1
v 0 16 9.536743E-07 1 1 1
v 0 1.192093E-06 -16 1 1 1
v -16 16 -16 1 1 1
v -16 1.192093E-06 -16 1 1 1
v 0 16 -16 1 1 1
v -16 1.192093E-06 -16 1 1 1
v -16 16 9.536743E-07 1 1 1
v -16 -7.152557E-07 9.536743E-07 1 1 1
v -16 16 -16 1 1 1
vn 0 -1 0
vn 0 1 0
vn 0 0 1
vn 1 0 0
vn 0 0 -1
vn -1 0 0
vt 0.9363809 0.06365247
vt 0.6260271 0.3738946
vt 0.9363809 0.3738946
vt 0.6260271 0.06365247
vt 0.000515611 0.6882836
vt 0.3116898 0.9996317
vt 0.3116898 0.6882836
vt 0.000515611 0.9996317
vt 0.0008072259 0.3756607
vt 0.3117008 0.6869622
vt 0.3117008 0.3756607
vt 0.0008072259 0.6869622
vt 0.3131614 0.3753878
vt 0.6245227 0.6869545
vt 0.6245227 0.3753878
vt 0.3131614 0.6869545
vt 0.6257279 0.3757787
vt 0.9366672 0.686971
vt 0.9366672 0.3757787
vt 0.6257279 0.686971
vt 0.0005423072 0.06341752
vt 0.3114154 0.374614
vt 0.3114154 0.06341752
vt 0.0005423072 0.374614
g Cube
usemtl Standard (Instance)
f 3/3/1 2/2/1 1/1/1
f 4/4/1 1/1/1 2/2/1
f 7/7/2 6/6/2 5/5/2
f 8/8/2 5/5/2 6/6/2
f 11/11/3 10/10/3 9/9/3
f 12/12/3 9/9/3 10/10/3
f 15/15/4 14/14/4 13/13/4
f 16/16/4 13/13/4 14/14/4
f 19/19/5 18/18/5 17/17/5
f 20/20/5 17/17/5 18/18/5
f 23/23/6 22/22/6 21/21/6
f 24/24/6 21/21/6 22/22/6
