# Export of Cubik Model: Cubik Model
# Designed by Vencorr with Cubik Studio - https://cubik.studio
# from Cubik OBJ Exporter v1.0
mtllib corner_roof.mtl
v 0.5 16.5 9.834766E-07 1 1 1
v -16.5 16.5 -16.5 1 1 1
v 0.5 16.5 -16.5 1 1 1
v -16.5 16.5 9.834766E-07 1 1 1
v -16.5 -0.5000019 1.966953E-06 1 1 1
v 0.5 16.5 9.834766E-07 1 1 1
v 0.5 16.5 -16.5 1 1 1
v 0.5 16.5 9.834766E-07 1 1 1
v -16.5 -0.5000019 1.966953E-06 1 1 1
v -16.5 16.5 9.834766E-07 1 1 1
v -16.5 16.5 -16.5 1 1 1
v -16.5 16.5 9.834766E-07 1 1 1
v -16.5 -0.5000019 1.966953E-06 1 1 1
v 0.5 16.5 -16.5 1 1 1
v -16.5 16.5 -16.5 1 1 1
v -16.5 -0.5000019 1.966953E-06 1 1 1
vn 8.742278E-08 1 0
vn 0.7071068 -0.7071067 0
vn 0 0 1
vn -1 8.742278E-08 0
vn -6.181724E-08 -0.7071068 -0.7071068
vt 0.9363809 0.06365247
vt 0.6260271 0.3738946
vt 0.9363809 0.3738946
vt 0.6260271 0.06365247
vt 0.3116898 0.6882836
vt 0.000515611 0.6882836
vt 0.000515611 0.9996317
vt 0.0008072259 0.3756607
vt 0.3117008 0.6869622
vt 0.3117008 0.3756607
vt 0.6245227 0.3753878
vt 0.3131614 0.3753878
vt 0.3131614 0.6869545
vt 0.9366672 0.3757787
vt 0.6257279 0.3757787
vt 0.6257279 0.686971
g Corner-out
usemtl Standard (Instance)
f 3/3/1 2/2/1 1/1/1
f 4/4/1 1/1/1 2/2/1
f 7/7/2 6/6/2 5/5/2
f 10/10/3 9/9/3 8/8/3
f 13/13/4 12/12/4 11/11/4
f 16/16/5 15/15/5 14/14/5
