# Export of Cubik Model: Cubik Model
# Designed by Vencorr with Cubik Studio - https://cubik.studio
# from Cubik OBJ Exporter v1.0
mtllib roof.mtl
v -16 0 -16 0.7882353 0.6980392 0.9647059
v 0 0 -16 0.7882353 0.6980392 0.9647059
v 0 0 0 0.7882353 0.6980392 0.9647059
v -16 0 0 0.7882353 0.6980392 0.9647059
v 0 1 -16 0.7882353 0.6980392 0.9647059
v -16 1 -16 0.7882353 0.6980392 0.9647059
v -16 1 0 0.7882353 0.6980392 0.9647059
v 0 1 0 0.7882353 0.6980392 0.9647059
v 0 1 0 0.7882353 0.6980392 0.9647059
v -16 1 0 0.7882353 0.6980392 0.9647059
v -16 0 0 0.7882353 0.6980392 0.9647059
v 0 0 0 0.7882353 0.6980392 0.9647059
v -16 1 -16 0.7882353 0.6980392 0.9647059
v 0 1 -16 0.7882353 0.6980392 0.9647059
v 0 0 -16 0.7882353 0.6980392 0.9647059
v -16 0 -16 0.7882353 0.6980392 0.9647059
v 0 1 -16 0.7882353 0.6980392 0.9647059
v 0 1 0 0.7882353 0.6980392 0.9647059
v 0 0 0 0.7882353 0.6980392 0.9647059
v 0 0 -16 0.7882353 0.6980392 0.9647059
v -16 1 0 0.7882353 0.6980392 0.9647059
v -16 1 -16 0.7882353 0.6980392 0.9647059
v -16 0 -16 0.7882353 0.6980392 0.9647059
v -16 0 0 0.7882353 0.6980392 0.9647059
vn 0 -1 0
vn 0 1 0
vn 0 0 1
vn 0 0 -1
vn 1 0 0
vn -1 0 0
vt 0.5 0.5
vt 0 0.5
vt 0 0
vt 0.5 0
vt 0.5 0.03125
vt 0 0.03125
g Element #6
usemtl Element
f 1/1/1 2/2/1 4/4/1
f 2/2/1 3/3/1 4/4/1
f 5/3/2 6/4/2 8/2/2
f 6/4/2 7/1/2 8/2/2
f 9/5/3 10/6/3 12/4/3
f 10/6/3 11/3/3 12/4/3
f 13/5/4 14/6/4 16/4/4
f 14/6/4 15/3/4 16/4/4
f 17/5/5 18/6/5 20/4/5
f 18/6/5 19/3/5 20/4/5
f 21/5/6 22/6/6 24/4/6
f 22/6/6 23/3/6 24/4/6
