# Export of Cubik Model: Cubik Model
# Designed by Vencorr with Cubik Studio - https://cubik.studio
# from Cubik OBJ Exporter v1.0
mtllib slant_roof.mtl
v 0.2928933 -0.2071068 -16 0.9803922 0.9058824 0.6039216
v 1 0.5 -16 0.9803922 0.9058824 0.6039216
v 1 0.5 0 0.9803922 0.9058824 0.6039216
v 0.2928933 -0.2071068 0 0.9803922 0.9058824 0.6039216
v -15.61701 17.11701 -16 0.9803922 0.9058824 0.6039216
v -16.32412 16.4099 -16 0.9803922 0.9058824 0.6039216
v -16.32412 16.4099 0 0.9803922 0.9058824 0.6039216
v -15.61701 17.11701 0 0.9803922 0.9058824 0.6039216
v -15.61701 17.11701 0 0.9803922 0.9058824 0.6039216
v -16.32412 16.4099 0 0.9803922 0.9058824 0.6039216
v 0.2928933 -0.2071068 0 0.9803922 0.9058824 0.6039216
v 1 0.5 0 0.9803922 0.9058824 0.6039216
v -16.32412 16.4099 -16 0.9803922 0.9058824 0.6039216
v -15.61701 17.11701 -16 0.9803922 0.9058824 0.6039216
v 1 0.5 -16 0.9803922 0.9058824 0.6039216
v 0.2928933 -0.2071068 -16 0.9803922 0.9058824 0.6039216
v -15.61701 17.11701 -16 0.9803922 0.9058824 0.6039216
v -15.61701 17.11701 0 0.9803922 0.9058824 0.6039216
v 1 0.5 0 0.9803922 0.9058824 0.6039216
v 1 0.5 -16 0.9803922 0.9058824 0.6039216
v -16.32412 16.4099 0 0.9803922 0.9058824 0.6039216
v -16.32412 16.4099 -16 0.9803922 0.9058824 0.6039216
v 0.2928933 -0.2071068 -16 0.9803922 0.9058824 0.6039216
v 0.2928933 -0.2071068 0 0.9803922 0.9058824 0.6039216
vn 0.7071068 -0.7071067 0
vn -0.7071068 0.7071067 0
vn 0 0 1
vn 0 0 -1
vn 0.7071067 0.7071068 0
vn -0.7071067 -0.7071068 0
vt 0.5 0.5
vt 0.46875 0.5
vt 0.46875 0
vt 0.5 0
vt 0.03125 0.5
vt 0 0.5
vt 0 0.015625
vt 0.03125 0.015625
vt 0.46875 0.015625
vt 0.5 0.015625
g Element #5
usemtl Element
f 1/1/1 2/2/1 4/4/1
f 2/2/1 3/3/1 4/4/1
f 5/3/2 6/4/2 8/2/2
f 6/4/2 7/1/2 8/2/2
f 9/5/3 10/6/3 12/8/3
f 10/6/3 11/7/3 12/8/3
f 13/1/4 14/2/4 16/10/4
f 14/2/4 15/9/4 16/10/4
f 17/1/5 18/6/5 20/10/5
f 18/6/5 19/7/5 20/10/5
f 21/1/6 22/6/6 24/10/6
f 22/6/6 23/7/6 24/10/6
